<?xml version="1.0" encoding="utf-8"?>
<!-- Generator: Adobe Illustrator 19.0.0, SVG Export Plug-In . SVG Version: 6.00 Build 0)  -->
<svg version="1.1" id="Calque_1" xmlns="http://www.w3.org/2000/svg" xmlns:xlink="http://www.w3.org/1999/xlink" x="0px" y="0px"
	 viewBox="-49 141 512 512" style="enable-background:new -49 141 512 512;" xml:space="preserve">
<g>
	<path d="M246.9,327.3c22.1-20.3,48.4-30.9,78.3-33.2c-35.5-15.8-72.9-22.5-111.3-23.2c-43.7-0.9-86.3,5.6-126.9,22.6
		c30.4,1.9,57.1,12.4,79.6,33c22.5,20.5,35.7,46,40.5,76C212,372.9,224.8,347.6,246.9,327.3z"/>
	<path d="M331.8,377.9c-22.4,0-40.6,18-40.7,40.3c-0.1,22.1,18.2,40.6,40.5,40.6c22.2,0.1,40.5-18.2,40.5-40.5
		C372,396,354,377.9,331.8,377.9z M331.8,438.8c-11.5,0-20.7-9.1-20.7-20.3c0-11.7,9-20.7,20.6-20.7c11.3,0,20.6,9.3,20.5,20.6
		C352.1,429.7,343,438.8,331.8,438.8z"/>
	<path d="M82,319.7c-53.8-0.5-100.7,44.4-99.7,101.6c0.9,53.3,44.8,98.5,100.8,98c54.8-0.5,98.8-45.2,98.9-99.4
		C182.1,364.2,137.5,319.7,82,319.7z M83.6,480.2c-36,1.6-65.1-27.1-65-62c0.1-35.3,29.2-62.4,62.1-61.8c34.2,0,62,27.6,61.9,61.7
		C142.4,452.9,115.2,478.8,83.6,480.2z"/>
	<path d="M80.1,377.9C58.3,378,40,396.4,40,418.3c0.1,22.2,18.3,40.4,40.6,40.5c22.1,0.1,40.4-18.4,40.4-40.6
		C120.9,395.8,102.8,377.9,80.1,377.9z M80.6,439.1c-11.7,0-20.8-9-20.8-20.8c0-11.6,9-20.6,20.7-20.6c11.5,0,20.8,9.2,20.8,20.6
		C101.4,429.7,92.1,439,80.6,439.1z"/>
	<path d="M329.7,320.1c-54.6,1.1-97.3,45.1-97.8,99.5c0,55.3,44.9,100.4,99.9,100.2c55.3-0.2,100-44.1,99.9-100
		C431.7,362.2,385,318.9,329.7,320.1z M334.2,480.3c-35.9,1.4-64.6-27.2-64.6-61.9c0-35.1,28.9-62.4,62-61.8
		c34.2-0.1,61.9,27.5,61.9,61.7C393.6,452.5,366.4,479,334.2,480.3z"/>
	<path d="M439.4,343.8c3.5-12.4,9.5-24.8,18.8-39l1.3-1.9c0.7-1.1,1.4-2.2,2.2-3.3c0.8-1.3,1.2-2.7,1.1-4.4c0-3.3-2.7-6.1-6-6.3
		c-0.6,0-1.1-0.1-1.7-0.1c-1.5-0.1-3-0.2-4.6-0.2c-7.8,0-15.5,0-23.3,0c-16.5,0-33.6,0-50.5-0.1c-0.5,0-1.3-0.2-1.7-0.5
		c-21.2-13.2-44.2-23.7-68.3-31.1c-15.9-4.9-29.4-8.1-42.2-9.9c-12.6-1.8-33.6-4.7-59-4.7c-8.5,0-17.1,0.3-25.5,1
		c-14.3,0.9-29.2,2.9-44.3,5.8c-15.2,3-30.3,7-44.6,12.1c-20.8,7.3-40.2,16.8-57.7,28c0,0,0,0,0,0c-25.1,0-50.1,0-75.1,0
		c-0.1,0-0.2,0-0.3,0l-0.2,0c-1.8-0.3-3.7,0.3-5.1,1.5c-1.4,1.2-2.2,3-2.2,4.8v1c0,1.3,0.4,2.7,1.2,3.7c0.7,0.9,1.4,1.9,2.1,2.8
		c1.4,1.9,2.8,3.7,4,5.5c8.2,12.9,13.4,24.1,16.6,35.3c-9.4,13.6-16.1,28.3-19.9,43.6c-4.5,18-5.3,36.6-2.4,52.2
		c3.9,25.2,14.5,47.7,31.4,66.9c17.3,19.6,38.8,33,64.1,40c11.2,3.1,22.7,4.7,34.1,4.7c6.7,0,13.5-0.5,20.3-1.6
		c30.4-4.8,56.3-18.7,77.2-41.2c5.3,7.9,10.6,15.9,16,23.9l6,8.9c1.2,1.8,3.2,2.8,5.3,2.8h0c2.1,0,4.1-1.1,5.3-2.8
		c5.6-8.4,11.1-16.6,16.6-24.8l5.6-8.3c0.5,0.5,0.9,1,1.4,1.5c17.5,18.7,39.2,31.5,64.6,38.1c10.4,2.7,20.8,4,30.9,4l0.7,0
		c25.7-0.1,49.3-6.9,70.1-20.1c30.1-19.1,49.6-46,58-80C469.1,413.3,462.2,377,439.4,343.8z M447.3,448.5
		c-7.5,30.7-25.2,55-52.4,72.3c-18.8,11.9-40.1,18-63.4,18.2l-0.6,0c-9,0-18.3-1.2-27.7-3.6c-23-6-42.6-17.6-58.5-34.5
		c-1.5-1.6-3-3.3-4.6-5.1c-0.6-0.7-1.3-1.5-2-2.3c-1.2-1.4-3-2.2-4.8-2.2c-0.1,0-0.3,0-0.4,0c-2,0.1-3.8,1.2-4.9,2.8l-10.2,15.2
		c-3.8,5.6-7.5,11.2-11.3,16.9l-0.7-1c-6.9-10.3-13.7-20.4-20.4-30.5c-1.8-2.7-5.4-3.6-8.3-2.1c-0.2,0.1-0.3,0.1-0.3,0.2
		c-0.3,0.2-1,0.5-1.7,1c-0.5,0.4-0.9,0.9-1.3,1.4c-19.6,23.1-44.4,37.1-73.8,41.8c-6.1,1-12.2,1.5-18.3,1.5
		c-10.3,0-20.6-1.4-30.8-4.2C28.1,527.9,8.6,515.8-7,498.1c-15.3-17.4-24.9-37.7-28.4-60.5c0-0.1,0-0.1,0-0.2
		c-2.7-13.9-1.9-30.5,2.2-46.9c3.5-14.2,9.8-27.7,18.6-40.3c1.7-2.5,2.3-6,1.5-8.9c-3.4-12.6-9.2-25.1-18.2-39.3c21.7,0,43.3,0,65,0
		c2.3,0,4.7-0.8,6.7-2.1c16.7-10.7,35.2-19.7,55-26.7c13.8-4.9,28.2-8.8,42.8-11.6c14.5-2.8,28.9-4.7,42.8-5.6
		c8.1-0.6,16.4-0.9,24.5-0.9c24.5,0,45,2.9,57.2,4.6c12.1,1.7,24.9,4.7,40.2,9.4c23.1,7.1,45.1,17.1,65.4,29.8
		c2.5,1.5,5.6,2.4,8.4,2.4c16.8,0.1,34,0.1,50.5,0.1c6.1,0,12.1,0,18.2,0c-8.8,14-14.7,26.6-18.3,39.3c-0.7,2.4-1.3,6,1.4,9.9
		C449.5,380.7,455.8,413.7,447.3,448.5z"/>
</g>
</svg>
